<svg width="51.1" height="74.45" viewBox="0 0 51.1 74.45" xmlns="http://www.w3.org/2000/svg"><g id="svgGroup" stroke-linecap="round" fill-rule="evenodd" font-size="9pt" stroke="#000" stroke-width="0" fill="#646cff" style="stroke:#000;stroke-width:0;fill:#646cff"><path d="M 50.1 7.75 L 45.9 15.6 A 8.694 8.694 0 0 1 45.327 16.416 Q 45.012 16.811 44.684 17.108 A 4.336 4.336 0 0 1 44.325 17.4 A 3.005 3.005 0 0 1 43.247 17.885 Q 42.769 18 42.2 18 Q 41.168 18 39.994 17.416 A 7.855 7.855 0 0 1 39.725 17.275 Q 38.4 16.55 36.725 15.65 A 22.137 22.137 0 0 0 34.705 14.699 A 28.873 28.873 0 0 0 32.9 14.025 A 13.461 13.461 0 0 0 30.33 13.444 A 18.079 18.079 0 0 0 28 13.3 A 17.721 17.721 0 0 0 25.397 13.478 Q 24.068 13.676 23.003 14.094 A 7.05 7.05 0 0 0 20.925 15.325 A 6.653 6.653 0 0 0 18.651 19.807 A 9.368 9.368 0 0 0 18.6 20.8 A 5.675 5.675 0 0 0 18.883 22.625 A 4.819 4.819 0 0 0 20 24.45 Q 21.4 25.9 23.675 26.95 A 33.93 33.93 0 0 0 26.113 27.956 A 45.652 45.652 0 0 0 28.875 28.875 A 129.794 129.794 0 0 1 34.469 30.692 A 141.478 141.478 0 0 1 34.85 30.825 Q 37.9 31.9 40.825 33.35 Q 43.75 34.8 46.025 37.05 A 16.752 16.752 0 0 1 49.095 41.255 A 19.833 19.833 0 0 1 49.7 42.525 A 16.002 16.002 0 0 1 50.739 46.021 Q 51.1 47.99 51.1 50.3 A 25.778 25.778 0 0 1 49.945 58.077 A 24.025 24.025 0 0 1 49.35 59.75 Q 47.6 64.15 44.275 67.425 Q 40.95 70.7 36.075 72.575 Q 31.2 74.45 25 74.45 A 35.401 35.401 0 0 1 18.295 73.793 A 38.878 38.878 0 0 1 18.075 73.75 Q 14.55 73.05 11.25 71.775 Q 7.95 70.5 5.05 68.75 A 27.877 27.877 0 0 1 1.567 66.281 A 23.789 23.789 0 0 1 0 64.85 L 5 56.95 Q 5.55 56.05 6.55 55.5 Q 7.55 54.95 8.7 54.95 A 5.137 5.137 0 0 1 10.585 55.321 A 6.967 6.967 0 0 1 11.725 55.9 A 184.084 184.084 0 0 0 13.296 56.867 Q 14.127 57.373 15.051 57.926 A 297.937 297.937 0 0 0 15.175 58 Q 17.1 59.15 19.6 60.1 Q 22.1 61.05 25.5 61.05 A 16.822 16.822 0 0 0 28.283 60.835 Q 30.932 60.39 32.65 59.025 A 6.326 6.326 0 0 0 34.746 55.89 Q 35.087 54.815 35.172 53.502 A 13.946 13.946 0 0 0 35.2 52.6 A 7.575 7.575 0 0 0 34.986 50.753 A 5.456 5.456 0 0 0 33.8 48.45 A 9.857 9.857 0 0 0 31.708 46.665 A 12.837 12.837 0 0 0 30.125 45.8 A 29.887 29.887 0 0 0 27.45 44.727 A 39.335 39.335 0 0 0 24.95 43.95 A 152.624 152.624 0 0 1 19.76 42.416 A 167.506 167.506 0 0 1 19 42.175 Q 15.95 41.2 13.05 39.775 Q 10.15 38.35 7.875 36.025 A 16.305 16.305 0 0 1 5.266 32.478 A 20.509 20.509 0 0 1 4.2 30.225 Q 2.8 26.75 2.8 21.65 Q 2.8 17.55 4.45 13.65 Q 6.1 9.75 9.3 6.7 A 22.604 22.604 0 0 1 14.616 2.966 A 27.746 27.746 0 0 1 17.15 1.825 A 25.823 25.823 0 0 1 22.978 0.325 A 34.355 34.355 0 0 1 27.8 0 Q 31.15 0 34.325 0.525 A 34.539 34.539 0 0 1 39.903 1.918 A 31.777 31.777 0 0 1 40.35 2.075 A 33.264 33.264 0 0 1 45.364 4.349 A 30.691 30.691 0 0 1 45.675 4.525 A 25.059 25.059 0 0 1 49.35 7.088 A 22.63 22.63 0 0 1 50.1 7.75 Z" vector-effect="non-scaling-stroke"/></g></svg>